Trance.mp4

General

Format                                   : MPEG-4
Codec ID                                 : M4V 
File size                                : 234 MiB
Duration                                 : 1h 35mn
Overall bit rate mode                    : Variable
Overall bit rate                         : 342 Kbps

Video
ID                                       : 1
Format                                   : AVC
Format/Info                              : Advanced Video Codec
Format profile                           : High@L3.0
Format settings, CABAC                   : Yes
Format settings, ReFrames                : 2 frames
Codec ID                                 : avc1
Codec ID/Info                            : Advanced Video Coding
Duration                                 : 1h 35mn
Bit rate mode                            : Variable
Bit rate                                 : 292 Kbps
Maximum bit rate                         : 1 315 Kbps
Width                                    : 896 pixels
Height                                   : 318 pixels
Display aspect ratio                     : 2.818
Frame rate mode                          : Constant
Frame rate                               : 25.000 fps
Color space                              : YUV
Chroma subsampling                       : 4:2:0
Bit depth                                : 8 bits
Scan type                                : Progressive
Bits/(Pixel*Frame)                       : 0.041
Stream size                              : 200 MiB (85%)
Writing library                          : x264 core 120 r2151 a3f4407
Encoding settings                        : cabac=1 / ref=2 / deblock=1:0:0 / analyse=0x3:0x113 / me=hex / subme=5 / psy=1 / psy_rd=1.00:0.00 / mixed_ref=1 / me_range=16 / chroma_me=1 / trellis=2 / 8x8dct=1 / cqm=0 / deadzone=21,11 / fast_pskip=1 / chroma_qp_offset=0 / threads=48 / sliced_threads=0 / nr=0 / decimate=1 / interlaced=0 / bluray_compat=0 / constrained_intra=0 / bframes=0 / weightp=2 / keyint=250 / keyint_min=25 / scenecut=40 / intra_refresh=0 / rc_lookahead=40 / rc=crf / mbtree=1 / crf=26.0 / qcomp=0.60 / qpmin=0 / qpmax=69 / qpstep=4 / ip_ratio=1.40 / aq=1:1.00
Language                                 : English


Audio
ID                                       : 2
Format                                   : AAC
Format/Info                              : Advanced Audio Codec
Format profile                           : HE-AAC / LC
Codec ID                                 : 40
Duration                                 : 1h 35mn
Bit rate mode                            : Variable
Bit rate                                 : 48.0 Kbps
Maximum bit rate                         : 52.6 Kbps
Channel(s)                               : 2 channels
Channel positions                        : Front: L R
Sampling rate                            : 48.0 KHz / 24.0 KHz
Compression mode                         : Lossy
Stream size                              : 32.8 MiB (14%)
Language                                 : English

Plot

Simon, a fine art auctioneer, becomes involved in the theft of a painting from his own auction house. When Simon's colleague Franck tries to check the painting during the heist Simon attacks him and, as a result, Simon receives a blow to the head that leaves him with amnesia. Franck arrives home with an empty frame and then seeks to get information about the paintings whereabouts from Simon.

Simon and Franck have no recollection of any prior encounter with Elizabeth so they engage her as a hypnotherapist in order to unlock Simon's memories regarding the location of the painting.

Elizabeth and Franck start a relationship and he suggests that she try to seduce Simon to find the painting. She has sex with Simon and hypnotises him. He has a dream where Franck and his associates plan to kill Simon, but he kills them. In the dream, he calls Elizabeth and tells her where the painting is, remembering it.



* enjoy ...